<svg width="250" height="250" viewBox="0 0 250 250" fill="none" xmlns="http://www.w3.org/2000/svg">
<mask id="path-1-inside-1_2_4" fill="white">
<path d="M250 125C250 108.585 246.767 92.3303 240.485 77.1646C234.203 61.9989 224.996 48.219 213.388 36.6117C201.781 25.0043 188.001 15.7969 172.835 9.51506C157.67 3.23322 141.415 -7.17533e-07 125 0L125 125H250Z"/>
</mask>
<path d="M250 125C250 108.585 246.767 92.3303 240.485 77.1646C234.203 61.9989 224.996 48.219 213.388 36.6117C201.781 25.0043 188.001 15.7969 172.835 9.51506C157.67 3.23322 141.415 -7.17533e-07 125 0L125 125H250Z" fill="#CC8963" stroke="#CC8963" stroke-width="20" mask="url(#path-1-inside-1_2_4)"/>
<circle cx="125" cy="125" r="120" stroke="#CC8963" stroke-width="10"/>
</svg>
