<svg width="250" height="250" viewBox="0 0 250 250" fill="none" xmlns="http://www.w3.org/2000/svg">
<path d="M0 125C-2.16132e-06 149.723 7.33112 173.89 21.0663 194.446C34.8015 215.002 54.3238 231.024 77.1646 240.485C100.005 249.946 125.139 252.421 149.386 247.598C173.634 242.775 195.907 230.87 213.388 213.388C230.87 195.907 242.775 173.634 247.598 149.386C252.421 125.139 249.946 100.005 240.485 77.1646C231.024 54.3238 215.002 34.8015 194.446 21.0663C173.89 7.33113 149.723 1.86651e-06 125 0L125 125L0 125Z" fill="#99BD5F"/>
<circle cx="125" cy="125" r="120" stroke="#99BD5F" stroke-width="10"/>
</svg>
